<?xml version="1.0" standalone="no"?><!DOCTYPE svg PUBLIC "-//W3C//DTD SVG 1.1//EN" "http://www.w3.org/Graphics/SVG/1.1/DTD/svg11.dtd"><svg t="1709881291909" class="icon" viewBox="0 0 1024 1024" version="1.1" xmlns="http://www.w3.org/2000/svg" p-id="7513" xmlns:xlink="http://www.w3.org/1999/xlink" width="200" height="200"><path d="M998.4 262.4c0-38.4-32-70.4-70.4-70.4H518.4L448 134.4C441.6 128 435.2 128 435.2 128h-320C64 121.6 25.6 166.4 25.6 217.6v569.6c0 64 51.2 108.8 108.8 108.8h537.6c12.8 0 25.6-12.8 25.6-25.6s-12.8-25.6-25.6-25.6H134.4c-32 0-64-25.6-64-64V217.6c0-25.6 19.2-44.8 44.8-44.8h300.8l230.4 185.6h307.2v428.8c0 32-25.6 64-64 64h-32c-12.8 0-25.6 12.8-25.6 25.6s12.8 25.6 25.6 25.6h32c64 0 108.8-51.2 108.8-108.8V262.4z" fill="#B0B6BB" p-id="7514"></path><path d="M249.6 460.8h-64v204.8h38.4V582.4h70.4c6.4 0 12.8-6.4 19.2-12.8 6.4 0 12.8-12.8 19.2-19.2s6.4-19.2 6.4-32c0-19.2-6.4-32-12.8-38.4-6.4-6.4-12.8-19.2-25.6-19.2h-51.2z m44.8 76.8c0 6.4-6.4 6.4-12.8 12.8s-19.2 0-32 0h-25.6v-57.6h51.2c6.4 0 12.8 6.4 19.2 6.4v38.4zM371.2 460.8h38.4v204.8h-38.4zM492.8 460.8h-38.4v198.4h38.4v-128l76.8 128h44.8V460.8H576v134.4zM838.4 550.4h-89.6v32h44.8v25.6c-6.4 6.4-12.8 6.4-19.2 12.8-6.4 6.4-19.2 6.4-25.6 6.4-19.2 0-32-6.4-44.8-19.2-12.8-12.8-19.2-32-19.2-51.2 0-19.2 6.4-38.4 12.8-51.2 12.8-12.8 25.6-19.2 44.8-19.2 12.8 0 19.2 0 32 6.4 6.4 6.4 12.8 12.8 19.2 25.6l44.8-6.4c-6.4-19.2-12.8-32-25.6-44.8-12.8-12.8-32-12.8-57.6-12.8-19.2 0-38.4 6.4-51.2 12.8-19.2 6.4-32 19.2-38.4 38.4-6.4 19.2-12.8 32-12.8 57.6 0 19.2 6.4 38.4 12.8 51.2 6.4 19.2 19.2 32 38.4 38.4 12.8 6.4 32 12.8 57.6 12.8 19.2 0 32 0 51.2-6.4s19.2-19.2 25.6-25.6V550.4z" fill="#B0B6BB" p-id="7515"></path></svg>